<svg xmlns="http://www.w3.org/2000/svg" xmlns:xlink="http://www.w3.org/1999/xlink" width="500" zoomAndPan="magnify" viewBox="0 0 375 374.999991" height="500" preserveAspectRatio="xMidYMid meet" version="1.0"><defs><clipPath id="977576fb98"><path d="M 46.746094 119.578125 L 168 119.578125 L 168 180.113281 L 46.746094 180.113281 Z M 46.746094 119.578125 " clip-rule="nonzero"/></clipPath><clipPath id="22b49f4857"><path d="M 110 120.761719 L 167.425781 177.480469 C 167.871094 177.917969 168.007812 178.582031 167.769531 179.160156 C 167.53125 179.738281 166.96875 180.113281 166.34375 180.113281 L 48.316406 180.113281 C 47.691406 180.113281 47.128906 179.738281 46.890625 179.160156 C 46.65625 178.582031 46.789062 177.917969 47.234375 177.480469 L 104.664062 120.761719 C 106.140625 119.300781 108.519531 119.300781 110 120.761719 Z M 110 120.761719 " clip-rule="nonzero"/></clipPath><clipPath id="cd5abf1469"><path d="M 94 81 L 181 81 L 181 168 L 94 168 Z M 94 81 " clip-rule="nonzero"/></clipPath><clipPath id="88f6e8bb3f"><path d="M 136.496094 40.070312 L 222.28125 125.851562 L 179.476562 168.660156 L 93.691406 82.875 Z M 136.496094 40.070312 " clip-rule="nonzero"/></clipPath><clipPath id="88ab1a5dec"><path d="M 180.390625 85.632812 L 180.890625 166.347656 C 180.894531 166.972656 180.519531 167.535156 179.945312 167.777344 C 179.367188 168.019531 178.703125 167.886719 178.261719 167.445312 L 94.804688 83.988281 C 94.359375 83.546875 94.230469 82.878906 94.472656 82.304688 C 94.710938 81.726562 95.277344 81.355469 95.902344 81.359375 L 176.617188 81.859375 C 178.695312 81.871094 180.375 83.554688 180.390625 85.632812 Z M 180.390625 85.632812 " clip-rule="nonzero"/></clipPath><clipPath id="ed8b08df05"><path d="M 195.765625 46.746094 L 256.300781 46.746094 L 256.300781 168 L 195.765625 168 Z M 195.765625 46.746094 " clip-rule="nonzero"/></clipPath><clipPath id="2b23f64743"><path d="M 255.121094 110 L 198.402344 167.425781 C 197.960938 167.871094 197.296875 168.007812 196.71875 167.769531 C 196.144531 167.53125 195.765625 166.96875 195.765625 166.347656 L 195.765625 48.316406 C 195.765625 47.691406 196.144531 47.128906 196.71875 46.890625 C 197.296875 46.65625 197.960938 46.789062 198.402344 47.234375 L 255.121094 104.664062 C 256.582031 106.140625 256.582031 108.519531 255.121094 110 Z M 255.121094 110 " clip-rule="nonzero"/></clipPath><clipPath id="0e7d51c219"><path d="M 207 94 L 295 94 L 295 181 L 207 181 Z M 207 94 " clip-rule="nonzero"/></clipPath><clipPath id="3d7d836aaa"><path d="M 335.761719 136.246094 L 249.980469 222.027344 L 207.171875 179.222656 L 292.957031 93.441406 Z M 335.761719 136.246094 " clip-rule="nonzero"/></clipPath><clipPath id="c4b11b5a5a"><path d="M 290.199219 180.136719 L 209.484375 180.636719 C 208.859375 180.640625 208.296875 180.269531 208.054688 179.691406 C 207.8125 179.117188 207.945312 178.449219 208.386719 178.007812 L 291.84375 94.550781 C 292.289062 94.109375 292.953125 93.976562 293.527344 94.21875 C 294.105469 94.460938 294.476562 95.023438 294.472656 95.648438 L 293.972656 176.363281 C 293.960938 178.441406 292.277344 180.125 290.199219 180.136719 Z M 290.199219 180.136719 " clip-rule="nonzero"/></clipPath><clipPath id="1b4c91eb95"><path d="M 207.769531 195.183594 L 329.085938 195.183594 L 329.085938 255.71875 L 207.769531 255.71875 Z M 207.769531 195.183594 " clip-rule="nonzero"/></clipPath><clipPath id="8400692974"><path d="M 265.832031 254.539062 L 208.40625 197.820312 C 207.960938 197.378906 207.824219 196.714844 208.0625 196.140625 C 208.300781 195.5625 208.863281 195.183594 209.488281 195.183594 L 327.515625 195.183594 C 328.140625 195.183594 328.703125 195.5625 328.941406 196.140625 C 329.175781 196.714844 329.042969 197.378906 328.597656 197.820312 L 271.167969 254.539062 C 269.691406 256 267.3125 256 265.832031 254.539062 Z M 265.832031 254.539062 " clip-rule="nonzero"/></clipPath><clipPath id="ece2798935"><path d="M 195 207 L 283 207 L 283 295 L 195 295 Z M 195 207 " clip-rule="nonzero"/></clipPath><clipPath id="2989693c9b"><path d="M 239.914062 335.59375 L 154.132812 249.8125 L 196.9375 207.003906 L 282.71875 292.789062 Z M 239.914062 335.59375 " clip-rule="nonzero"/></clipPath><clipPath id="d2fdbaa3fe"><path d="M 196.023438 290.03125 L 195.523438 209.316406 C 195.519531 208.691406 195.890625 208.128906 196.46875 207.886719 C 197.042969 207.644531 197.707031 207.777344 198.148438 208.21875 L 281.609375 291.675781 C 282.050781 292.117188 282.183594 292.785156 281.941406 293.359375 C 281.699219 293.9375 281.136719 294.308594 280.511719 294.304688 L 199.796875 293.804688 C 197.71875 293.792969 196.035156 292.109375 196.023438 290.03125 Z M 196.023438 290.03125 " clip-rule="nonzero"/></clipPath><clipPath id="32dfef8aa6"><path d="M 120.160156 207.601562 L 180.695312 207.601562 L 180.695312 328.917969 L 120.160156 328.917969 Z M 120.160156 207.601562 " clip-rule="nonzero"/></clipPath><clipPath id="ff339cc4de"><path d="M 121.34375 265.664062 L 178.0625 208.238281 C 178.5 207.792969 179.164062 207.65625 179.742188 207.894531 C 180.320312 208.132812 180.695312 208.695312 180.695312 209.316406 L 180.695312 327.347656 C 180.695312 327.972656 180.320312 328.535156 179.742188 328.773438 C 179.164062 329.007812 178.5 328.875 178.0625 328.429688 L 121.34375 271 C 119.882812 269.523438 119.882812 267.144531 121.34375 265.664062 Z M 121.34375 265.664062 " clip-rule="nonzero"/></clipPath><clipPath id="2b18b89721"><path d="M 81 194 L 168 194 L 168 282 L 81 282 Z M 81 194 " clip-rule="nonzero"/></clipPath><clipPath id="d5bd69fa30"><path d="M 40.070312 239.257812 L 125.851562 153.476562 L 168.660156 196.28125 L 82.875 282.066406 Z M 40.070312 239.257812 " clip-rule="nonzero"/></clipPath><clipPath id="ee26268ace"><path d="M 85.632812 195.367188 L 166.347656 194.867188 C 166.972656 194.863281 167.535156 195.238281 167.777344 195.8125 C 168.019531 196.390625 167.886719 197.054688 167.445312 197.496094 L 83.988281 280.953125 C 83.546875 281.394531 82.878906 281.527344 82.304688 281.285156 C 81.726562 281.046875 81.355469 280.480469 81.359375 279.855469 L 81.859375 199.140625 C 81.871094 197.0625 83.554688 195.382812 85.632812 195.367188 Z M 85.632812 195.367188 " clip-rule="nonzero"/></clipPath><clipPath id="4e35ec1805"><path d="M 176.109375 176.109375 L 198.890625 176.109375 L 198.890625 198.890625 L 176.109375 198.890625 Z M 176.109375 176.109375 " clip-rule="nonzero"/></clipPath><clipPath id="ceefe3130c"><path d="M 187.5 176.109375 C 181.210938 176.109375 176.109375 181.210938 176.109375 187.5 C 176.109375 193.789062 181.210938 198.890625 187.5 198.890625 C 193.789062 198.890625 198.890625 193.789062 198.890625 187.5 C 198.890625 181.210938 193.789062 176.109375 187.5 176.109375 Z M 187.5 176.109375 " clip-rule="nonzero"/></clipPath></defs><g clip-path="url(#977576fb98)"><g clip-path="url(#22b49f4857)"><path fill="#000000" d="M 44.566406 118.125 L 170 118.125 L 170 180.113281 L 44.566406 180.113281 Z M 44.566406 118.125 " fill-opacity="1" fill-rule="nonzero"/></g></g><g clip-path="url(#cd5abf1469)"><g clip-path="url(#88f6e8bb3f)"><g clip-path="url(#88ab1a5dec)"><path fill="#000000" d="M 135.984375 37.503906 L 224.679688 126.195312 L 180.84375 170.027344 L 92.152344 81.335938 Z M 135.984375 37.503906 " fill-opacity="1" fill-rule="nonzero"/></g></g></g><g clip-path="url(#ed8b08df05)"><g clip-path="url(#2b23f64743)"><path fill="#000000" d="M 257.753906 44.566406 L 257.753906 170 L 195.765625 170 L 195.765625 44.566406 Z M 257.753906 44.566406 " fill-opacity="1" fill-rule="nonzero"/></g></g><g clip-path="url(#0e7d51c219)"><g clip-path="url(#3d7d836aaa)"><g clip-path="url(#c4b11b5a5a)"><path fill="#000000" d="M 338.332031 135.730469 L 249.636719 224.425781 L 205.804688 180.59375 L 294.496094 91.898438 Z M 338.332031 135.730469 " fill-opacity="1" fill-rule="nonzero"/></g></g></g><g clip-path="url(#1b4c91eb95)"><g clip-path="url(#8400692974)"><path fill="#000000" d="M 331.265625 257.171875 L 205.832031 257.171875 L 205.832031 195.183594 L 331.265625 195.183594 Z M 331.265625 257.171875 " fill-opacity="1" fill-rule="nonzero"/></g></g><g clip-path="url(#ece2798935)"><g clip-path="url(#2989693c9b)"><g clip-path="url(#d2fdbaa3fe)"><path fill="#000000" d="M 240.425781 338.160156 L 151.734375 249.46875 L 195.566406 205.636719 L 284.261719 294.328125 Z M 240.425781 338.160156 " fill-opacity="1" fill-rule="nonzero"/></g></g></g><g clip-path="url(#32dfef8aa6)"><g clip-path="url(#ff339cc4de)"><path fill="#000000" d="M 118.707031 331.097656 L 118.707031 205.664062 L 180.695312 205.664062 L 180.695312 331.097656 Z M 118.707031 331.097656 " fill-opacity="1" fill-rule="nonzero"/></g></g><g clip-path="url(#2b18b89721)"><g clip-path="url(#d5bd69fa30)"><g clip-path="url(#ee26268ace)"><path fill="#000000" d="M 37.5 239.773438 L 126.195312 151.078125 L 170.027344 194.914062 L 81.335938 283.605469 Z M 37.5 239.773438 " fill-opacity="1" fill-rule="nonzero"/></g></g></g><g clip-path="url(#4e35ec1805)"><g clip-path="url(#ceefe3130c)"><path fill="#000000" d="M 176.109375 176.109375 L 198.890625 176.109375 L 198.890625 198.890625 L 176.109375 198.890625 Z M 176.109375 176.109375 " fill-opacity="1" fill-rule="nonzero"/></g></g></svg>