<?xml version="1.0" standalone="no"?>
<!DOCTYPE svg PUBLIC "-//W3C//DTD SVG 20010904//EN"
 "http://www.w3.org/TR/2001/REC-SVG-20010904/DTD/svg10.dtd">
<svg version="1.0" xmlns="http://www.w3.org/2000/svg"
 width="1024.000000pt" height="1024.000000pt" viewBox="0 0 1024.000000 1024.000000"
 preserveAspectRatio="xMidYMid meet">

<g transform="translate(0.000000,1024.000000) scale(0.100000,-0.100000)"
fill="#000000" stroke="none">
<path d="M4945 8435 c-438 -59 -840 -311 -1047 -655 -160 -264 -218 -465 -237
-814 l-6 -119 -30 -10 c-119 -39 -214 -237 -202 -422 12 -196 156 -427 317
-508 58 -29 65 -36 77 -75 17 -60 88 -232 130 -317 79 -157 151 -265 260 -392
l53 -61 0 -104 c0 -181 -37 -342 -112 -492 -99 -196 -260 -320 -913 -701 -148
-87 -406 -257 -517 -342 -54 -41 -132 -112 -174 -156 -142 -150 -295 -372
-344 -498 -12 -30 -30 -68 -41 -85 -27 -44 -24 -55 22 -105 38 -40 42 -42 49
-24 5 11 28 72 52 135 76 198 229 408 419 576 158 139 348 266 774 519 342
203 503 319 610 439 28 32 61 69 75 84 124 136 210 379 210 595 l0 49 63 -50
c93 -74 165 -117 263 -158 177 -73 235 -86 397 -92 129 -4 161 -1 245 18 213
49 377 129 504 247 26 23 51 43 56 43 5 0 12 -57 15 -127 10 -192 48 -321 137
-457 121 -185 315 -340 770 -614 554 -333 690 -435 868 -647 144 -172 256
-368 301 -528 l17 -57 48 49 48 48 -58 128 c-67 150 -133 260 -219 370 -75 95
-240 258 -345 341 -112 87 -362 249 -650 418 -351 208 -557 368 -663 518 -96
134 -145 297 -154 510 l-6 147 67 73 c85 91 185 240 258 383 58 114 128 300
128 340 0 15 7 25 23 29 39 9 139 80 197 138 65 65 131 185 154 279 30 122 18
276 -30 371 -27 53 -119 157 -158 177 -24 13 -26 19 -26 84 0 137 -55 429
-105 564 -40 105 -134 281 -196 364 -205 276 -501 466 -874 560 -105 27 -358
34 -500 14z m465 -120 c85 -20 188 -64 172 -73 -13 -9 -101 -161 -135 -236
-56 -121 -189 -318 -272 -401 -189 -190 -489 -337 -824 -405 -99 -20 -240 -27
-443 -22 l-118 2 0 28 c1 45 56 252 88 327 111 261 311 477 578 625 241 133
444 182 729 176 95 -3 178 -10 225 -21z m403 -159 c157 -87 341 -256 443 -406
245 -358 311 -811 204 -1397 -96 -523 -170 -733 -360 -1017 -143 -213 -328
-376 -543 -481 -188 -91 -227 -100 -427 -99 -159 0 -168 1 -261 33 -328 111
-622 384 -812 753 -69 134 -96 203 -146 373 -55 189 -107 424 -126 575 -20
159 -30 402 -20 504 l7 78 36 -6 c81 -14 283 -18 392 -7 193 19 448 95 667
201 138 66 345 205 385 259 15 20 76 96 136 170 140 172 239 355 251 463 4 42
3 72 -3 78 -17 17 110 -36 177 -74z m-2153 -1464 c0 -98 63 -506 93 -604 20
-65 6 -62 -63 11 -138 146 -182 311 -131 493 31 114 101 182 101 100z m3050
-78 c31 -62 38 -201 15 -279 -35 -124 -112 -240 -201 -302 l-31 -22 18 56 c27
80 65 285 84 453 9 80 19 161 22 180 l5 35 34 -39 c18 -21 43 -58 54 -82z"/>
</g>
</svg>
